<svg id="visual" viewBox="0 0 960 540" width="960" height="540" xmlns="http://www.w3.org/2000/svg" xmlns:xlink="http://www.w3.org/1999/xlink" version="1.1"><g><g transform="translate(599 485)"><path d="M163.8 -47.7C188.5 22.8 168.4 113.4 114.4 151.1C60.5 188.7 -27.2 173.4 -86.1 128.3C-145 83.2 -175.1 8.3 -155.9 -54.6C-136.8 -117.4 -68.4 -168.1 0.6 -168.2C69.6 -168.4 139.1 -118.1 163.8 -47.7Z" stroke="#dbc2f2" fill="none" stroke-width="6"></path></g><g transform="translate(9 464)"><path d="M180.3 -60.8C203.9 14.1 172.8 104.5 110.9 148.5C49 192.5 -43.7 190 -108.1 144.3C-172.6 98.5 -209 9.4 -186.3 -64.3C-163.6 -137.9 -81.8 -196.1 -1.7 -195.6C78.4 -195 156.7 -135.7 180.3 -60.8Z" stroke="#dbc2f2" fill="none" stroke-width="6"></path></g><g transform="translate(919 66)"><path d="M175.4 -50.2C199.2 16.5 171.3 106.9 108.7 153.2C46.2 199.4 -51 201.7 -115.4 155.6C-179.7 109.6 -211.4 15.3 -186.7 -52.5C-162 -120.4 -81 -161.8 -2.6 -161C75.7 -160.1 151.5 -117 175.4 -50.2Z" stroke="#dbc2f2" fill="none" stroke-width="6"></path></g></g></svg>